<svg width="285" height="40" viewBox="0 0 285 40" fill="none" xmlns="http://www.w3.org/2000/svg">
<path d="M4.27441 36.998C4.04655 38.3164 3.37923 38.9837 2.27246 39C1.89811 39 1.55632 38.8942 1.24707 38.6826C0.612305 38.2594 0.294922 37.5758 0.294922 36.6318L4.71387 3.01367C4.74642 2.75326 4.81966 2.49284 4.93359 2.23242C5.29167 1.48372 5.86947 1.10938 6.66699 1.10938C6.97624 1.10938 7.27734 1.19076 7.57031 1.35352C8.22135 1.71159 8.57129 2.26497 8.62012 3.01367L7.00879 16.124C15.0329 7.13965 19.2484 2.47656 19.6553 2.13477C20.2249 1.5651 20.7783 1.28027 21.3154 1.28027C21.6735 1.28027 22.0072 1.37793 22.3164 1.57324C22.9349 1.94759 23.2441 2.4847 23.2441 3.18457C23.2441 3.67285 23.0651 4.18555 22.707 4.72266C22.2676 5.29232 17.2383 10.8669 7.61914 21.4463C8.67708 22.3903 9.86523 23.4645 11.1836 24.6689C18.0195 30.8376 21.9095 34.3939 22.8535 35.3379C23.4557 35.9564 23.765 36.526 23.7812 37.0469C23.7812 37.4212 23.6673 37.7712 23.4395 38.0967C23.0488 38.6989 22.528 39 21.877 39C21.3073 39 20.7783 38.821 20.29 38.4629C19.7367 38.0723 14.9189 33.6859 5.83691 25.3037C5.07194 31.391 4.55111 35.2891 4.27441 36.998ZM55.6172 35.0693C55.194 33.7835 54.9824 32.1234 54.9824 30.0889C54.9824 28.5426 55.137 26.6953 55.4463 24.5469C54.8929 24.8236 54.2826 25.027 53.6152 25.1572C53.4199 26.1501 53.1676 27.1592 52.8584 28.1846C51.7516 31.9281 50.3844 34.7764 48.7568 36.7295C48.4801 37.055 48.1465 37.3724 47.7559 37.6816C46.3724 38.7559 44.9157 39.293 43.3857 39.293C41.3675 39.2767 39.9271 38.3571 39.0645 36.5342C37.6322 38.3083 35.6628 39.2035 33.1562 39.2197C32.5866 39.2197 32.0495 39.1465 31.5449 39C28.6803 38.1536 27.248 35.0124 27.248 29.5762C27.248 29.4785 27.248 29.3727 27.248 29.2588C27.2806 26.6221 27.5654 24.1156 28.1025 21.7393C28.5745 19.6722 29.3721 18.6305 30.4951 18.6143C31.5531 18.6305 32.0983 19.2734 32.1309 20.543C32.1309 20.7871 32.0576 21.3405 31.9111 22.2031C31.3415 25.8978 31.0566 28.5589 31.0566 30.1865C31.0566 33.5719 31.9111 35.2809 33.6201 35.3135C35.915 35.1507 37.4694 32.1478 38.2832 26.3047C38.4948 24.7259 38.6494 22.9518 38.7471 20.9824C38.7633 20.8197 38.7715 20.722 38.7715 20.6895C38.9017 19.4036 39.5283 18.7526 40.6514 18.7363C40.7653 18.7363 40.8792 18.7445 40.9932 18.7607C41.807 18.9235 42.2139 19.5745 42.2139 20.7139C41.807 24.9131 41.6035 28.502 41.6035 31.4805C41.6035 31.9036 41.6361 32.335 41.7012 32.7744C41.9616 34.7113 42.6696 35.6797 43.8252 35.6797C45.111 35.6797 46.3073 34.7031 47.4141 32.75C48.2767 31.2363 49.237 28.6729 50.2949 25.0596C49.7741 24.9131 49.2858 24.7178 48.8301 24.4736C47.1374 23.5133 46.291 21.9915 46.291 19.9082C46.291 19.2246 46.4619 18.5736 46.8037 17.9551C47.5199 16.7181 48.6592 16.0996 50.2217 16.0996C51.0192 16.0996 51.776 16.3112 52.4922 16.7344C53.6641 17.4505 54.25 18.4515 54.25 19.7373C54.25 20.2581 54.2093 20.9255 54.1279 21.7393C54.7627 21.4137 55.6172 20.8604 56.6914 20.0791C57.0007 19.8675 57.3669 19.7536 57.79 19.7373C58.4411 19.7536 59.0026 19.9652 59.4746 20.3721C59.735 20.5837 59.8734 20.8034 59.8896 21.0312C59.8896 21.2103 59.8327 21.4707 59.7188 21.8125C58.8724 24.6771 58.4492 27.1429 58.4492 29.21C58.4492 30.512 58.5876 31.7572 58.8643 32.9453C58.8643 32.9779 58.8724 33.0186 58.8887 33.0674C59.263 34.4183 59.9466 35.0938 60.9395 35.0938C61.4277 35.0449 62.2415 34.6868 63.3809 34.0195C64.39 33.3522 65.1387 33.0186 65.627 33.0186C65.8711 33.0186 66.1152 33.1081 66.3594 33.2871C66.7826 33.5964 66.9941 33.9626 66.9941 34.3857C66.929 35.2972 66.2861 36.2331 65.0654 37.1934C63.6169 38.235 62.0706 38.7559 60.4268 38.7559C60.0524 38.7559 59.6781 38.7152 59.3037 38.6338C57.5622 38.2432 56.3333 37.055 55.6172 35.0693ZM49.2207 20.0791C49.237 20.9906 49.8066 21.6416 50.9297 22.0322C51.0924 21.1696 51.1738 20.5186 51.1738 20.0791C51.1738 19.9814 51.1576 19.8757 51.125 19.7617C51.0111 19.3223 50.71 19.1025 50.2217 19.1025C50.1403 19.1025 50.0426 19.1188 49.9287 19.1514C49.4567 19.2816 49.2207 19.5908 49.2207 20.0791ZM66.8721 11.9736C66.8883 11.9736 66.9697 11.9736 67.1162 11.9736C68.0277 12.0062 68.8496 12.0225 69.582 12.0225L70.6562 4.47852C70.7214 3.97396 70.8027 3.55078 70.9004 3.20898C71.1934 2.13477 71.7874 1.59766 72.6826 1.59766C72.8617 1.59766 73.0407 1.61393 73.2197 1.64648C73.9684 1.82552 74.3428 2.53353 74.3428 3.77051C74.3428 4.16113 74.0173 6.91178 73.3662 12.0225H75.9297C76.3691 12.0225 76.7516 12.112 77.0771 12.291C77.6468 12.6328 77.9316 13.1374 77.9316 13.8047C77.9316 14.0977 77.8584 14.3743 77.7119 14.6348C77.3376 15.2533 76.7272 15.5625 75.8809 15.5625H72.8535C71.584 25.3281 70.9492 30.805 70.9492 31.9932C70.9492 32.7419 71.1038 33.4417 71.4131 34.0928C71.8688 35.0693 72.471 35.5576 73.2197 35.5576C73.3988 35.5576 73.5859 35.5332 73.7812 35.4844C74.2207 35.3704 74.8473 34.9961 75.6611 34.3613C76.4587 33.7266 77.126 33.4092 77.6631 33.4092C77.891 33.4092 78.1107 33.458 78.3223 33.5557C78.9082 33.8486 79.2012 34.2962 79.2012 34.8984C79.1523 35.7448 78.5257 36.6237 77.3213 37.5352C75.8564 38.5931 74.3021 39.1221 72.6582 39.1221C71.0469 39.1058 69.7285 38.4303 68.7031 37.0957C67.6615 35.6797 67.1406 33.8975 67.1406 31.749C67.1406 31.277 67.7835 25.8815 69.0693 15.5625H66.8721C66.7744 15.5625 66.6768 15.5625 66.5791 15.5625C65.4561 15.4648 64.8945 14.8789 64.8945 13.8047C64.8945 13.5117 64.9434 13.2432 65.041 12.999C65.334 12.3154 65.9443 11.9736 66.8721 11.9736ZM89.0889 19.835C89.3818 18.9886 89.984 18.5573 90.8955 18.541H91.042C91.4001 18.5573 91.7581 18.598 92.1162 18.6631C94.7529 19.1025 96.9014 20.4941 98.5615 22.8379C100.124 25.0352 100.905 27.5254 100.905 30.3086C100.905 32.9616 100.157 35.2891 98.6592 37.291C98.6266 37.3236 98.5941 37.3724 98.5615 37.4375C97.943 38.2025 97.2676 38.585 96.5352 38.585C96.2747 38.585 96.0143 38.4954 95.7539 38.3164C95.2493 37.9421 94.9971 37.4375 94.9971 36.8027C94.9971 36.5911 95.0378 36.3714 95.1191 36.1436C95.1191 36.1436 95.2087 35.9727 95.3877 35.6309C96.5758 33.7103 97.1781 31.8141 97.1943 29.9424C97.1943 29.7308 97.1862 29.5111 97.1699 29.2832C97.0072 27.1999 96.1934 25.4176 94.7285 23.9365C93.7682 22.96 92.8975 22.4635 92.1162 22.4473C91.9535 23.082 91.6605 24.2458 91.2373 25.9385C90.3421 29.6657 89.4551 32.514 88.5762 34.4834C87.2253 37.5107 84.9548 39.0407 81.7646 39.0732C80.3975 39.0732 79.2663 38.6012 78.3711 37.6572C76.9876 36.1924 76.2959 33.8568 76.2959 30.6504C76.2959 29.5762 76.5075 27.4684 76.9307 24.3271C77.1423 22.7972 77.2887 21.6823 77.3701 20.9824C77.3864 20.8034 77.4108 20.6243 77.4434 20.4453C77.7038 18.8991 78.363 18.126 79.4209 18.126C79.6325 18.126 79.8359 18.1504 80.0312 18.1992C80.7311 18.3945 81.0811 19.0863 81.0811 20.2744C81.0811 20.7464 80.9997 21.7637 80.8369 23.3262C80.3324 27.9486 80.0801 30.8213 80.0801 31.9443C80.0801 32.7093 80.2347 33.4173 80.5439 34.0684C80.9997 35.0286 81.6019 35.5088 82.3506 35.5088C83.376 35.4925 84.3037 34.752 85.1338 33.2871C85.8011 32.0827 86.5417 29.9017 87.3555 26.7441C87.388 26.5977 87.9658 24.2946 89.0889 19.835ZM78.2979 13.9023C78.2979 13.6094 78.3711 13.3245 78.5176 13.0479C78.8431 12.4131 79.3639 12.0957 80.0801 12.0957C80.373 12.0957 80.6579 12.1689 80.9346 12.3154C81.5531 12.6572 81.8623 13.1862 81.8623 13.9023C81.8623 14.1953 81.7891 14.4801 81.6426 14.7568C81.3171 15.3753 80.7962 15.6846 80.0801 15.6846C79.7708 15.6846 79.486 15.6113 79.2256 15.4648C78.6071 15.123 78.2979 14.6022 78.2979 13.9023ZM142.434 9.8252C142.076 8.94629 141.636 8.14876 141.115 7.43262C139.846 5.75618 138.446 4.91797 136.916 4.91797C135.923 4.91797 134.922 5.28418 133.913 6.0166C131.993 7.38379 130.34 9.76009 128.957 13.1455C127.508 16.6286 126.784 20.0465 126.784 23.3994C126.784 26.6221 127.305 29.3076 128.347 31.4561C129.502 33.8324 131.081 35.0205 133.083 35.0205C134.011 35.0205 135.044 34.5973 136.184 33.751C137.974 32.4001 139.512 30.4388 140.798 27.8672C140.83 27.7695 140.879 27.6719 140.944 27.5742C141.319 26.9395 141.864 26.6221 142.58 26.6221C142.922 26.6221 143.247 26.7035 143.557 26.8662C144.208 27.2406 144.533 27.8102 144.533 28.5752C144.533 28.8519 144.452 29.1693 144.289 29.5273C143.247 31.7409 141.994 33.6208 140.529 35.167C138.088 37.7223 135.467 39 132.668 39C132.31 39 131.952 38.9756 131.594 38.9268C129.087 38.5687 127.012 37.0794 125.368 34.459C123.545 31.5456 122.634 27.8997 122.634 23.5215C122.634 20.9173 123.008 18.2806 123.757 15.6113C124.929 11.4121 126.735 7.92904 129.177 5.16211C131.732 2.29753 134.434 0.865234 137.282 0.865234C138.503 0.865234 139.667 1.13379 140.773 1.6709C143.117 2.84277 144.875 5.04818 146.047 8.28711C146.177 8.59635 146.242 8.89746 146.242 9.19043C146.242 9.53223 146.153 9.85775 145.974 10.167C145.583 10.818 145.021 11.1436 144.289 11.1436C143.54 11.0947 142.922 10.6553 142.434 9.8252ZM160.939 39C157.017 38.8372 154.112 36.4447 152.224 31.8223C150.824 28.3392 150.124 24.0749 150.124 19.0293C150.124 18.7689 150.14 18.4352 150.173 18.0283C150.401 14.5941 151.035 11.4447 152.077 8.58008C153.77 3.95768 156.162 1.64648 159.255 1.64648C159.418 1.64648 159.589 1.65462 159.768 1.6709C162.583 1.84993 163.991 3.48568 163.991 6.57812C163.991 9.94727 162.543 13.6908 159.646 17.8086C157.806 20.429 155.878 22.5531 153.859 24.1807C154.413 27.2731 155.023 29.5924 155.69 31.1387C156.927 34.0033 158.767 35.4355 161.208 35.4355C161.371 35.4355 161.542 35.4193 161.721 35.3867C162.258 35.2891 163.007 34.8984 163.967 34.2148C164.895 33.5801 165.619 33.2627 166.14 33.2627C166.368 33.2627 166.587 33.3359 166.799 33.4824C167.271 33.8079 167.507 34.2474 167.507 34.8008C167.474 35.6471 166.872 36.5179 165.7 37.4131C164.235 38.471 162.648 39 160.939 39ZM159.279 5.33301C158.319 5.34928 157.473 5.76432 156.74 6.57812C154.885 8.67773 153.868 13.0641 153.688 19.7373C154.665 18.7445 155.642 17.5726 156.618 16.2217C159.32 12.527 160.671 9.41016 160.671 6.87109C160.671 6.74089 160.638 6.58626 160.573 6.40723C160.313 5.69108 159.882 5.33301 159.279 5.33301ZM185.28 27.4277C185.28 27.4277 185.931 24.8398 187.233 19.6641C187.575 18.8177 188.177 18.3864 189.04 18.3701C189.366 18.3864 189.691 18.4189 190.017 18.4678C192.751 18.9072 194.973 20.2988 196.682 22.6426C198.277 24.8398 199.074 27.3464 199.074 30.1621C199.042 31.9036 198.635 33.6777 197.854 35.4844C196.958 37.4538 195.909 38.4385 194.704 38.4385C194.379 38.4385 194.069 38.3001 193.776 38.0234C193.353 37.6165 193.142 37.1689 193.142 36.6807C193.142 36.4691 193.182 36.2493 193.264 36.0215C193.264 36.0215 193.361 35.8424 193.557 35.4844C194.729 33.6126 195.323 31.7165 195.339 29.7959C195.339 29.568 195.331 29.3402 195.314 29.1123C195.152 27.0127 194.33 25.2305 192.849 23.7656C191.905 22.7891 191.042 22.2926 190.261 22.2764C190.098 22.8949 189.829 24.0179 189.455 25.6455C188.625 29.2913 187.827 31.9443 187.062 33.6045C185.386 37.1689 182.953 38.9512 179.763 38.9512C177.712 38.9349 176.215 37.9014 175.271 35.8506C175.059 36.0947 174.815 36.347 174.538 36.6074C172.894 38.1699 171.234 38.9512 169.558 38.9512C168.516 38.9512 167.621 38.6826 166.872 38.1455C165.196 36.9574 164.357 34.6299 164.357 31.1631C164.357 30.6097 164.39 30.0238 164.455 29.4053C164.797 26.6221 165.676 24.1481 167.092 21.9834C168.833 19.3304 170.917 18.0039 173.342 18.0039C174.4 18.0039 175.319 18.2074 176.101 18.6143C176.426 18.2236 176.857 18.0202 177.395 18.0039C177.606 18.0039 177.81 18.0283 178.005 18.0771C178.705 18.2725 179.055 18.9642 179.055 20.1523C179.055 20.6243 178.973 21.6416 178.811 23.2041C178.306 27.8265 178.054 30.6992 178.054 31.8223C178.054 32.4408 178.16 33.0348 178.371 33.6045C178.778 34.7601 179.421 35.3379 180.3 35.3379C181.358 35.3216 182.294 34.6868 183.107 33.4336C183.791 32.3268 184.515 30.3249 185.28 27.4277ZM173.049 32.8232C173.163 32.6442 173.301 32.2943 173.464 31.7734C174.131 29.5599 174.742 26.1338 175.295 21.4951C174.888 21.2998 174.514 21.2021 174.172 21.2021C173.863 21.2021 173.553 21.2428 173.244 21.3242C171.747 21.7799 170.477 23.196 169.436 25.5723C168.492 27.7044 168.02 29.8285 168.02 31.9443C168.02 32.2536 168.036 32.5465 168.068 32.8232C168.215 34.402 168.711 35.1914 169.558 35.1914C170.013 35.1914 170.567 34.9635 171.218 34.5078C171.983 33.9707 172.593 33.4092 173.049 32.8232ZM202.712 24.9619C202.728 24.9294 202.761 24.8561 202.81 24.7422C204.291 21.3893 205.031 19.6966 205.031 19.6641C205.031 19.6478 205.039 19.6315 205.056 19.6152C205.381 18.7852 206 18.3701 206.911 18.3701C207.237 18.3864 207.57 18.4189 207.912 18.4678C210.646 18.891 212.868 20.2826 214.577 22.6426C216.156 24.8398 216.945 27.3464 216.945 30.1621C216.945 31.6432 216.652 33.1976 216.066 34.8252C215.22 37.2178 214.064 38.4141 212.6 38.4141C212.339 38.4141 212.071 38.3245 211.794 38.1455C211.273 37.7549 211.013 37.2503 211.013 36.6318C211.013 36.4202 211.062 36.2005 211.159 35.9727C211.159 35.9727 211.249 35.8099 211.428 35.4844C212.6 33.5801 213.194 31.6839 213.21 29.7959C213.21 29.5843 213.202 29.3646 213.186 29.1367C213.023 27.0371 212.209 25.2467 210.744 23.7656C209.784 22.7891 208.921 22.2926 208.156 22.2764C207.88 22.7972 207.285 23.9609 206.374 25.7676C206.374 25.7676 206.366 25.7839 206.35 25.8164C206.333 25.849 206.317 25.8734 206.301 25.8896C205.601 27.2406 204.86 27.916 204.079 27.916C203.851 27.916 203.615 27.8672 203.371 27.7695C202.72 27.4766 202.395 26.9883 202.395 26.3047C202.395 26.0443 202.476 25.6781 202.639 25.2061C202.671 25.0921 202.696 25.0107 202.712 24.9619ZM232.277 33.0674C232.277 33.0837 232.285 33.0999 232.302 33.1162C232.823 34.6299 233.514 35.3867 234.377 35.3867C234.882 35.3542 235.695 34.9961 236.818 34.3125C237.827 33.6452 238.584 33.3115 239.089 33.3115C239.333 33.3115 239.577 33.3929 239.821 33.5557C240.244 33.8812 240.456 34.2555 240.456 34.6787C240.391 35.5739 239.748 36.5016 238.527 37.4619C237.062 38.5199 235.516 39.0488 233.889 39.0488C232.814 39.0488 231.887 38.7721 231.105 38.2188C229.283 36.9167 228.371 34.2718 228.371 30.2842C228.371 29.5029 228.404 28.681 228.469 27.8184C228.599 26.1582 228.729 25.141 228.859 24.7666C227.785 25.32 226.67 25.5967 225.515 25.5967C225.384 25.5967 225.189 25.5804 224.929 25.5479C224.799 25.5316 224.701 25.5234 224.636 25.5234C224.587 25.556 224.4 25.6618 224.074 25.8408C222.984 26.4756 222.105 26.793 221.438 26.793C221.242 26.793 221.039 26.7441 220.827 26.6465C220.323 26.3861 220.07 26.0117 220.07 25.5234C220.07 25.4421 220.078 25.3607 220.095 25.2793C220.144 24.9538 220.396 24.612 220.852 24.2539C221.031 24.1237 221.161 24.0179 221.242 23.9365C220.233 23.0088 219.72 21.7393 219.704 20.1279C219.704 19.4281 219.875 18.777 220.217 18.1748C220.933 16.9215 222.072 16.2949 223.635 16.2949C224.432 16.2949 225.189 16.5065 225.905 16.9297C227.077 17.6621 227.663 18.6712 227.663 19.957C227.663 20.722 227.549 21.4137 227.321 22.0322C227.565 21.9183 227.989 21.6497 228.591 21.2266C229.828 20.3802 230.699 19.957 231.203 19.957C231.87 19.9733 232.432 20.1768 232.888 20.5674C233.132 20.779 233.262 21.015 233.278 21.2754C233.278 21.373 233.254 21.5195 233.205 21.7148C233.156 21.8613 233.132 21.9671 233.132 22.0322C232.285 24.8968 231.862 27.3545 231.862 29.4053C231.862 30.3005 231.968 31.3096 232.18 32.4326C232.229 32.7256 232.261 32.9372 232.277 33.0674ZM224.587 20.2744C224.587 20.1605 224.571 20.0384 224.538 19.9082C224.392 19.5013 224.09 19.2979 223.635 19.2979C223.537 19.2979 223.431 19.3141 223.317 19.3467C222.862 19.4932 222.634 19.8024 222.634 20.2744C222.65 21.0394 223.057 21.6253 223.854 22.0322C224.326 21.5277 224.571 20.9417 224.587 20.2744ZM244.191 18.4922C244.761 18.5085 245.298 18.5654 245.803 18.6631C248.309 19.2002 249.847 21.1533 250.417 24.5225C250.726 24.3434 251.239 24.0098 251.955 23.5215C252.932 22.8542 253.672 22.5205 254.177 22.5205C254.421 22.5205 254.657 22.5938 254.885 22.7402C255.389 23.0658 255.642 23.5052 255.642 24.0586C255.625 24.612 255.267 25.2223 254.567 25.8896C253.575 26.8011 252.289 27.5742 250.71 28.209C250.694 30.748 250.311 32.8965 249.562 34.6543C248.342 37.5189 246.34 38.9512 243.557 38.9512C242.564 38.9512 241.571 38.6338 240.578 37.999C238.283 36.4854 237.136 33.7591 237.136 29.8203C237.136 27.444 237.535 25.2793 238.332 23.3262C239.585 20.25 241.538 18.6387 244.191 18.4922ZM247.243 28.8438C246.608 28.8275 246.006 28.7624 245.437 28.6484C243.288 28.1927 241.905 27.0534 241.286 25.2305C240.863 26.5977 240.651 28.0869 240.651 29.6982C240.651 30.4795 240.725 31.2363 240.871 31.9688C241.327 34.1986 242.32 35.3135 243.85 35.3135C244.354 35.3135 244.81 35.1589 245.217 34.8496C246.405 33.9382 247.08 31.9362 247.243 28.8438ZM246.877 25.5234C246.877 25.5234 246.991 25.5234 247.219 25.5234C246.975 23.2936 246.389 22.1706 245.461 22.1543C245.38 22.1543 245.298 22.1624 245.217 22.1787C244.859 22.3089 244.68 22.5775 244.68 22.9844C244.68 23.3424 244.737 23.6924 244.851 24.0342C245.209 25.027 245.884 25.5234 246.877 25.5234ZM256.813 36.0459C256.748 36.6318 256.577 37.1608 256.301 37.6328C255.829 38.4303 255.235 38.8291 254.519 38.8291C254.34 38.8291 254.169 38.7965 254.006 38.7314C253.192 38.3896 252.785 37.527 252.785 36.1436L254.86 20.7383C254.893 20.4453 254.942 20.1686 255.007 19.9082C255.284 18.5573 255.91 17.8818 256.887 17.8818C257.098 17.8818 257.302 17.9062 257.497 17.9551C258.197 18.1504 258.547 18.8421 258.547 20.0303C258.547 20.5023 258.522 21.0394 258.474 21.6416C258.49 21.609 258.514 21.5684 258.547 21.5195C259.768 19.3385 261.501 18.248 263.747 18.248C264.414 18.248 265.106 18.4271 265.822 18.7852C266.929 19.3548 267.629 20.1198 267.922 21.0801C269.094 19.3223 270.713 18.4352 272.78 18.4189C273.578 18.4189 274.318 18.6631 275.002 19.1514C275.995 19.8675 276.491 20.8278 276.491 22.0322C276.491 22.8135 276.483 24.0098 276.467 25.6211C276.434 27.3952 276.418 28.7542 276.418 29.6982C276.418 30.4307 276.434 31.0654 276.467 31.6025C276.662 34.1579 277.443 35.4355 278.811 35.4355C278.973 35.4355 279.144 35.4193 279.323 35.3867C279.795 35.2728 280.487 34.8903 281.398 34.2393C282.294 33.5882 283.01 33.2627 283.547 33.2627C283.758 33.2627 283.962 33.3278 284.157 33.458C284.662 33.7673 284.914 34.2474 284.914 34.8984C284.914 34.9473 284.906 35.0124 284.89 35.0938C284.776 35.875 284.1 36.6807 282.863 37.5107C281.35 38.5361 279.844 39.0488 278.347 39.0488C277.126 39.0488 276.092 38.7152 275.246 38.0479C273.505 36.6481 272.634 33.5801 272.634 28.8438C272.634 28.5671 272.642 28.1195 272.658 27.501C272.691 26.6058 272.707 25.8327 272.707 25.1816C272.707 23.4727 272.512 22.6019 272.121 22.5693C271.796 22.5693 271.413 22.8216 270.974 23.3262C269.834 24.6445 268.614 27.0778 267.312 30.626L266.896 34.8008C266.799 35.875 266.66 36.6969 266.481 37.2666C266.14 38.3734 265.489 38.9268 264.528 38.9268C264.268 38.9268 264.024 38.8698 263.796 38.7559C263.096 38.4303 262.746 37.7549 262.746 36.7295C262.746 35.7367 262.974 33.9544 263.43 31.3828C264.048 27.8509 264.357 25.4339 264.357 24.1318C264.357 23.79 264.325 23.4889 264.26 23.2285C264.13 22.6751 263.788 22.3984 263.234 22.3984C262.941 22.4147 262.616 22.5856 262.258 22.9111C261.053 24.0505 259.719 26.7035 258.254 30.8701C257.294 33.5882 256.813 35.3135 256.813 36.0459Z" fill="black"/>
</svg>
